<svg fill="#000000" viewBox="0 0 20.00 20.00" xmlns="http://www.w3.org/2000/svg" stroke="#000000" transform="rotate(0)matrix(1, 0, 0, 1, 0, 0)" stroke-width="0.0002"><g id="SVGRepo_bgCarrier" stroke-width="0"></g><g id="SVGRepo_tracerCarrier" stroke-linecap="round" stroke-linejoin="round" stroke="#CCCCCC" stroke-width="0.04"></g><g id="SVGRepo_iconCarrier"><path d="M0 2C0 .9.9 0 2 0h16a2 2 0 0 1 2 2v2a2 2 0 0 1-2 2H2a2 2 0 0 1-2-2V2zm0 7c0-1.1.9-2 2-2h16a2 2 0 0 1 2 2v2a2 2 0 0 1-2 2H2a2 2 0 0 1-2-2V9zm0 7c0-1.1.9-2 2-2h16a2 2 0 0 1 2 2v2a2 2 0 0 1-2 2H2a2 2 0 0 1-2-2v-2zM12 2v2h2V2h-2zm4 0v2h2V2h-2zm-4 7v2h2V9h-2zm4 0v2h2V9h-2zm-4 7v2h2v-2h-2zm4 0v2h2v-2h-2z"></path></g></svg>